PathFileType	4	(X/Y/Z)	/Users/itak/Documents/Research/Walk-IL/dataset/trc/00082_00006.trc
DataRate	CameraRate	NumFrames	NumMarkers	Units	OrigDataRate	OrigDataStartFrame	OrigNumFrames
100.000000	100.000000	4	53	mm	100.000000	0	500
Frame#	Time	RPSI			LPSI			L3			STRN			T10			C7			CLAV			RBAK			LBAK			LSHO			LUPA			LAEL			LAOL			LWTS			LWPS			LFRA			LIFD			LHPS			LHTS			RSHO			RUPA			RAEL			RAOL			RWTS			RWPS			RFRA			RIFD			RHTS			RHPS			RBHD			LFHD			RFHD			LBHD			LHIP			RHIP			RASI			LASI			LKNE			LTHI			LANK			LTIP			LTOE			LMT1			LMT5			LHEE			RKNE			RTHI			RANK			RTIP			RTOE			RMT1			RMT5			RHEE			
		X1	Y1	Z1	X2	Y2	Z2	X3	Y3	Z3	X4	Y4	Z4	X5	Y5	Z5	X6	Y6	Z6	X7	Y7	Z7	X8	Y8	Z8	X9	Y9	Z9	X10	Y10	Z10	X11	Y11	Z11	X12	Y12	Z12	X13	Y13	Z13	X14	Y14	Z14	X15	Y15	Z15	X16	Y16	Z16	X17	Y17	Z17	X18	Y18	Z18	X19	Y19	Z19	X20	Y20	Z20	X21	Y21	Z21	X22	Y22	Z22	X23	Y23	Z23	X24	Y24	Z24	X25	Y25	Z25	X26	Y26	Z26	X27	Y27	Z27	X28	Y28	Z28	X29	Y29	Z29	X30	Y30	Z30	X31	Y31	Z31	X32	Y32	Z32	X33	Y33	Z33	X34	Y34	Z34	X35	Y35	Z35	X36	Y36	Z36	X37	Y37	Z37	X38	Y38	Z38	X39	Y39	Z39	X40	Y40	Z40	X41	Y41	Z41	X42	Y42	Z42	X43	Y43	Z43	X44	Y44	Z44	X45	Y45	Z45	X46	Y46	Z46	X47	Y47	Z47	X48	Y48	Z48	X49	Y49	Z49	X50	Y50	Z50	X51	Y51	Z51	X52	Y52	Z52	X53	Y53	Z53	

1	0	-1370.620971679688	1039.28955078125	478.4062805175781	-1385.230712890625	1035.773559570312	302.7667236328125	-1373.51904296875	1083.465698242188	383.32470703125	-1134.113037109375	1296.736083984375	379.7947998046875	-1398.410278320312	1214.286743164062	377.484619140625	-1356.881469726562	1485.155517578125	377.1131896972656	-1170.88037109375	1409.307861328125	378.794189453125	-1409.52978515625	1341.706420898438	449.5331726074219	-1376.22119140625	1445.555786132812	274.9801025390625	-1272.852172851562	1456.171997070312	202.5850677490234	-1280.058349609375	1327.0419921875	126.0615615844727	-1244.421142578125	1112.669311523438	112.4301910400391	-1309.808959960938	1096.086181640625	195.3843231201172	-1143.643920898438	879.2896118164062	183.6936645507812	-1198.006469726562	864.2860717773438	121.7529754638672	-1217.082885742188	1004.777221679688	108.1394958496094	-1124.369506835938	696.268310546875	209.9277191162109	-1161.673706054688	785.6782836914062	130.1037750244141	-1115.970947265625	797.593994140625	182.4351043701172	-1292.234985351562	1451.859008789062	552.0772705078125	-1298.73828125	1381.100341796875	615.5997924804688	-1305.746826171875	1112.383056640625	635.080810546875	-1288.280517578125	1095.023803710938	536.2718505859375	-1153.53076171875	867.9005126953125	585.7238159179688	-1220.147583007812	849.7784423828125	639.9284057617188	-1287.3681640625	1034.38916015625	638.5590209960938	-1152.876220703125	684.495849609375	557.4664916992188	-1124.559448242188	769.3287963867188	581.7674560546875	-1194.137329101562	750.3924560546875	626.2776489257812	-1312.660522460938	1683.644775390625	314.5471801757812	-1146.296020507812	1695.039794921875	451.0217590332031	-1135.883911132812	1702.007080078125	326.08837890625	-1316.34716796875	1668.735107421875	451.6778869628906	-1285.664184570312	966.5736083984375	211.97216796875	-1300.889770507812	969.7831420898438	553.8629760742188	-1177.915649414062	985.5089111328125	526.023681640625	-1170.518798828125	977.5052490234375	256.5975036621094	-1249.184448242188	500.3213500976562	266.8909301757812	-1269.916015625	642.789794921875	228.5535430908203	-1347.610595703125	51.04263305664062	266.8305053710938	-1308.754272460938	268.3722534179688	252.5151062011719	-1141.749267578125	47.42550277709961	269.7872924804688	-1190.249755859375	46.1882438659668	324.2854309082031	-1245.204223632812	43.33079147338867	226.9096527099609	-1399.0009765625	50.96849822998047	343.1985473632812	-1246.34912109375	518.9485473632812	527.2269897460938	-1225.688354492188	791.2439575195312	559.96044921875	-1327.982666015625	44.3135986328125	521.490234375	-1270.708374023438	400.5530700683594	533.0537109375	-1110.85009765625	44.72096633911133	483.8106994628906	-1172.043823242188	50.77407455444336	444.0713806152344	-1204.379028320312	47.9675407409668	537.0712890625	-1375.315551757812	46.68040466308594	463.285400390625	
2	0.01	-1370.634521484375	1039.335693359375	478.3360290527344	-1385.103515625	1035.8212890625	302.7074279785156	-1373.456298828125	1083.429931640625	383.2256774902344	-1134.126220703125	1296.742065429688	379.81640625	-1398.41552734375	1214.210693359375	377.4054260253906	-1356.953369140625	1485.105590820312	377.0747985839844	-1170.912231445312	1409.298950195312	378.8006591796875	-1409.532348632812	1341.636962890625	449.4556884765625	-1376.245849609375	1445.501098632812	274.9376525878906	-1272.868408203125	1456.161499023438	202.5669555664062	-1280.013061523438	1327.0263671875	126.0368957519531	-1244.233764648438	1112.681762695312	112.400505065918	-1309.633056640625	1096.051879882812	195.3421325683594	-1143.192260742188	879.4476928710938	183.7337493896484	-1197.601928710938	864.2833251953125	121.791374206543	-1216.870849609375	1004.815002441406	108.0944671630859	-1123.841064453125	696.388916015625	209.9165954589844	-1161.146728515625	785.7735595703125	130.0759735107422	-1115.484497070312	797.8283081054688	182.4361877441406	-1292.372802734375	1451.792236328125	552.0390625	-1298.894165039062	1381.041015625	615.551513671875	-1305.788696289062	1112.331665039062	635.0007934570312	-1288.268676757812	1094.969970703125	536.228271484375	-1153.469970703125	867.8721923828125	585.7138061523438	-1220.1201171875	849.7293090820312	639.8776245117188	-1287.381103515625	1034.306762695312	638.5255737304688	-1152.594482421875	684.5078735351562	557.4309692382812	-1124.642822265625	769.2774047851562	581.7109375	-1190.551513671875	752.8734130859375	628.9207763671875	-1312.7392578125	1683.617919921875	314.5208129882812	-1146.383911132812	1695.034057617188	451.0059204101562	-1136.020263671875	1701.977294921875	326.0446166992188	-1316.435302734375	1668.728149414062	451.6806335449219	-1285.614868164062	966.5685424804688	211.8794860839844	-1301.030639648438	969.9285278320312	553.8649291992188	-1177.978515625	985.4937133789062	526.0415649414062	-1170.471801757812	977.4177856445312	256.6206970214844	-1249.67431640625	500.28857421875	266.8087768554688	-1270.204223632812	642.7577514648438	228.5000762939453	-1347.657592773438	51.02314376831055	266.7757873535156	-1309.069091796875	268.3783874511719	252.4095764160156	-1141.796752929688	47.44994354248047	269.7737121582031	-1190.273071289062	46.20746612548828	324.2722778320312	-1245.23779296875	43.32635116577148	226.882568359375	-1399.080932617188	50.92810821533203	343.142822265625	-1246.4287109375	518.9365844726562	527.235595703125	-1225.866333007812	791.2642211914062	559.9606323242188	-1327.958618164062	44.26391220092773	521.490234375	-1270.769897460938	400.5447692871094	533.0587768554688	-1110.850463867188	44.73055267333984	483.8034362792969	-1172.047241210938	50.77456283569336	444.0685424804688	-1204.382202148438	47.97638702392578	537.0776977539062	-1375.31494140625	46.67406463623047	463.2716979980469	
3	0.02	-1370.641357421875	1039.395751953125	478.2545471191406	-1384.9443359375	1035.8779296875	302.64111328125	-1373.37353515625	1083.388916015625	383.1137390136719	-1134.1416015625	1296.743530273438	379.846923828125	-1398.412475585938	1214.111694335938	377.2997131347656	-1357.036987304688	1485.040161132812	377.0214233398438	-1170.944580078125	1409.286010742188	378.812255859375	-1409.538696289062	1341.548095703125	449.36279296875	-1376.26416015625	1445.4326171875	274.880859375	-1272.875732421875	1456.146240234375	202.5450439453125	-1279.940063476562	1327.005981445312	126.0056686401367	-1243.999389648438	1112.693481445312	112.3593521118164	-1309.417602539062	1096.009033203125	195.2782745361328	-1142.63671875	879.6285400390625	183.7942504882812	-1197.096801757812	864.2875366210938	121.837043762207	-1216.58740234375	1004.859069824219	108.0422973632812	-1123.170288085938	696.5328369140625	209.9203338623047	-1160.503540039062	785.883056640625	130.0531921386719	-1114.836547851562	798.1076049804688	182.4258880615234	-1292.532104492188	1451.704833984375	551.9972534179688	-1299.08203125	1380.962280273438	615.4874877929688	-1305.853759765625	1112.268188476562	634.8946533203125	-1288.254760742188	1094.8994140625	536.173095703125	-1153.401245117188	867.8256225585938	585.7083129882812	-1220.090087890625	849.6599731445312	639.8140869140625	-1287.400756835938	1034.189208984375	638.4779663085938	-1152.303344726562	684.5076904296875	557.4033203125	-1124.719116210938	769.2171630859375	581.655517578125	-1186.695556640625	755.5359497070312	631.7683715820312	-1312.837524414062	1683.574462890625	314.4876098632812	-1146.494384765625	1695.03076171875	450.9906921386719	-1136.18896484375	1701.937744140625	325.9911804199219	-1316.547119140625	1668.713500976562	451.6857299804688	-1285.556884765625	966.5584106445312	211.7702789306641	-1301.183349609375	970.0864868164062	553.8584594726562	-1178.041748046875	985.47216796875	526.0618896484375	-1170.41455078125	977.3086547851562	256.6470336914062	-1250.308471679688	500.2522583007812	266.6941223144531	-1270.581298828125	642.7200927734375	228.4184722900391	-1347.714965820312	50.99727630615234	266.7091369628906	-1309.460083007812	268.3896179199219	252.2757568359375	-1141.85302734375	47.47912979125977	269.7570190429688	-1190.30517578125	46.23340606689453	324.2546997070312	-1245.277954101562	43.31712341308594	226.8477325439453	-1399.182983398438	50.87904739379883	343.0686950683594	-1246.532836914062	518.923828125	527.2493896484375	-1226.057861328125	791.2809448242188	559.979248046875	-1327.926025390625	44.20244979858398	521.4927978515625	-1270.858032226562	400.5324401855469	533.0667724609375	-1110.8623046875	44.73607635498047	483.7976989746094	-1172.052978515625	50.77442169189453	444.0661315917969	-1204.389526367188	47.98345947265625	537.0839233398438	-1375.31494140625	46.66204833984375	463.2584533691406	
4	0.03	-1370.636962890625	1039.467407226562	478.1686401367188	-1384.760986328125	1035.93994140625	302.5743408203125	-1373.273559570312	1083.34765625	382.9993591308594	-1134.157836914062	1296.73681640625	379.8861694335938	-1398.396484375	1213.992553710938	377.1698913574219	-1357.124633789062	1484.961059570312	376.9530029296875	-1170.972412109375	1409.267944335938	378.8306274414062	-1409.549926757812	1341.443115234375	449.260009765625	-1376.268798828125	1445.35400390625	274.8100891113281	-1272.86669921875	1456.126098632812	202.5206298828125	-1279.834350585938	1326.981567382812	125.9689865112305	-1243.727294921875	1112.702392578125	112.3066864013672	-1309.172485351562	1095.959716796875	195.190673828125	-1142.01025390625	879.816650390625	183.8749847412109	-1196.51708984375	864.3013916015625	121.8847885131836	-1216.23876953125	1004.90576171875	107.9867095947266	-1122.389770507812	696.6881103515625	209.9432220458984	-1159.780395507812	785.9981689453125	130.0412750244141	-1114.043090820312	798.411865234375	182.4042510986328	-1292.699584960938	1451.598754882812	551.9561767578125	-1299.2919921875	1380.865966796875	615.4088745117188	-1305.94580078125	1112.193603515625	634.7648315429688	-1288.236450195312	1094.8125	536.1073608398438	-1153.332763671875	867.7579345703125	585.7105102539062	-1220.060668945312	849.5706176757812	639.7413330078125	-1287.428833007812	1034.035400390625	638.4161987304688	-1152.03125	684.4955444335938	557.3853149414062	-1124.77392578125	769.1489868164062	581.6129760742188	-1183.123779296875	757.9920654296875	634.4114379882812	-1312.949340820312	1683.51171875	314.4489440917969	-1146.621826171875	1695.031860351562	450.9785766601562	-1136.38037109375	1701.89013671875	325.9316101074219	-1316.677734375	1668.68896484375	451.6938171386719	-1285.495727539062	966.542236328125	211.65087890625	-1301.331787109375	970.24365234375	553.8433227539062	-1178.09423828125	985.4442749023438	526.08251953125	-1170.350219726562	977.1826782226562	256.6742553710938	-1251.0634765625	500.2154235839844	266.5489807128906	-1271.042358398438	642.6807861328125	228.302734375	-1347.779296875	50.96577835083008	266.6344909667969	-1309.911010742188	268.4080810546875	252.1177520751953	-1141.91455078125	47.51148223876953	269.7376708984375	-1190.346557617188	46.26651382446289	324.2323608398438	-1245.322509765625	43.30252456665039	226.8062286376953	-1399.302856445312	50.8237190246582	342.9782104492188	-1246.657836914062	518.9115600585938	527.26904296875	-1226.242309570312	791.2900390625	560.0208740234375	-1327.890380859375	44.13795852661133	521.497802734375	-1270.97216796875	400.5160522460938	533.0783081054688	-1110.886962890625	44.73512268066406	483.7931213378906	-1172.061889648438	50.77303314208984	444.0641479492188	-1204.399780273438	47.98805236816406	537.08935546875	-1375.315795898438	46.64372253417969	463.2474060058594	
